PathFileType	4	(X/Y/Z)	KinectAzureSkeleton.trc
DateRate	CameraRate	NumFrames	NumMarkers	Units	OrigDateRate	OrigDataStartFrame	OrigNumFrames
30	30	7	32	mm	30	46	183
Frame#	Time			PELVIS			SPINE_NAVAL			SPINE_CHEST			NECK			CLAVICLE_LEFT			SHOULDER_LEFT			ELBOW_LEFT			WRIST_LEFT			HAND_LEFT			HANDTIP_LEFT			THUMB_LEFT			CLAVICLE_RIGHT			SHOULDER_RIGHT			ELBOW_RIGHT			WRIST_RIGHT			HAND_RIGHT			HANDTIP_RIGHT			THUMB_RIGHT			HIP_LEFT			KNEE_LEFT			ANKLE_LEFT			FOOT_LEFT			HIP_RIGHT			KNEE_RIGHT			ANKLE_RIGHT			FOOT_RIGHT			HEAD			NOSE			EYE_LEFT			EAR_LEFT			EYE_RIGHT			EAR_RIGHT
		X1	Y1	Z1	X2	Y2	Z2	X3	Y3	Z3	X4	Y4	Z4	X5	Y5	Z5	X6	Y6	Z6	X7	Y7	Z7	X8	Y8	Z8	X9	Y9	Z9	X10	Y10	Z10	X11	Y11	Z11	X12	Y12	Z12	X13	Y13	Z13	X14	Y14	Z14	X15	Y15	Z15	X16	Y16	Z16	X17	Y17	Z17	X18	Y18	Z18	X19	Y19	Z19	X20	Y20	Z20	X21	Y21	Z21	X22	Y22	Z22	X23	Y23	Z23	X24	Y24	Z24	X25	Y25	Z25	X26	Y26	Z26	X27	Y27	Z27	X28	Y28	Z28	X29	Y29	Z29	X30	Y30	Z30	X31	Y31	Z31	X32	Y32	Z32

45	1.551066	-4761.743652	105.112442	355.448822	-4755.934082	275.793732	366.912964	-4758.349609	412.518768	371.901093	-4749.818359	620.625000	369.673645	-4762.045410	588.104431	348.766968	-4759.958008	562.536377	214.037537	-4832.145508	313.519287	158.621704	-4792.339355	95.885620	134.808395	-4790.413574	3.799856	141.971985	-4731.451660	-51.782055	206.633545	-4723.621582	-24.310089	149.772156	-4761.968262	587.133484	397.780121	-4725.157715	560.297058	515.441772	-4767.351563	297.887634	563.787231	-4722.952637	77.210632	553.391357	-4711.300781	-21.576107	553.105164	-4722.085938	-119.165016	525.835693	-4704.969238	-44.419609	482.820526	-4759.122559	110.883583	268.197998	-4642.814453	-254.466537	245.543213	-4662.697266	-620.231445	221.905457	-4519.335938	-728.566284	225.870972	-4764.106445	99.905190	434.126556	-4851.096680	-273.156036	412.632294	-5001.508301	-609.308716	368.298065	-4920.313965	-753.353943	370.394043	-4717.095703	691.837952	369.725708	-4563.473633	699.888062	359.587677	-4585.854004	730.724304	321.746796	-4695.475586	743.551880	270.642792	-4578.921387	737.706909	387.784027	-4683.837891	764.658203	451.560730
46	1.584400	-4746.994629	103.318459	355.109161	-4738.692383	274.175781	366.515503	-4746.766602	410.918793	371.063354	-4756.631348	619.283325	374.535645	-4765.864746	586.348511	352.638245	-4752.279785	563.945801	217.790146	-4814.812500	312.723145	158.682083	-4766.954590	95.652969	142.402252	-4758.746094	3.486894	141.922821	-4701.990234	-50.298405	210.240784	-4691.300293	-20.762377	155.788345	-4765.917969	584.033386	401.684998	-4717.787109	562.862244	516.601440	-4753.498047	297.436951	555.131592	-4710.354004	75.913208	557.653992	-4696.806152	-22.635937	552.091919	-4702.399902	-120.854477	524.913086	-4685.608398	-41.010952	480.983032	-4743.883789	109.000832	267.727997	-4644.881348	-262.011261	244.418610	-4613.132324	-627.551819	221.126862	-4454.771973	-712.358521	232.880356	-4749.798828	98.191246	433.904419	-4842.403320	-274.190796	413.115479	-4996.295410	-609.570923	369.912628	-4916.872559	-754.908691	371.526245	-4730.276367	693.190613	376.742340	-4577.716309	712.165466	362.287994	-4603.439941	744.112915	327.494263	-4715.640137	753.246521	280.930847	-4594.532715	746.825562	393.716187	-4698.710938	762.158813	462.735931
47	1.617733	-4736.102051	100.290253	348.747406	-4724.927246	272.099243	359.981964	-4730.999023	409.842499	363.999847	-4739.646484	619.555664	369.545013	-4748.582520	586.714417	346.911652	-4733.240234	563.776794	211.443054	-4795.460938	309.775543	156.341675	-4747.126465	90.917496	147.454926	-4717.235840	2.747074	145.244385	-4650.388184	-54.868660	201.208359	-4644.704102	-4.844494	154.145676	-4749.926758	583.850159	396.226471	-4705.237793	561.851563	513.252136	-4741.958984	295.370148	555.579041	-4684.722656	75.741722	564.707520	-4673.439941	-23.713812	558.755920	-4688.658691	-118.586205	522.444763	-4672.437500	-43.297119	486.603333	-4730.843262	105.693336	260.887482	-4635.725586	-269.229248	244.018631	-4583.844727	-635.093384	225.010513	-4422.677734	-714.628845	247.912674	-4740.844238	95.414856	427.974426	-4837.161133	-278.688293	409.367157	-4996.205566	-614.615784	368.592285	-4911.449219	-758.152466	369.076813	-4712.704102	693.726318	373.267120	-4560.242676	721.421875	361.483276	-4587.345215	752.890442	326.765411	-4699.923340	756.988647	278.384979	-4579.486328	754.630798	393.584473	-4685.989258	762.828552	461.744812
48	1.651066	-4721.167969	95.114670	341.511627	-4710.587402	267.429962	351.189819	-4708.284668	405.602692	354.579620	-4692.241699	615.389954	357.364502	-4705.248047	583.475952	335.223358	-4702.620117	561.562012	198.443283	-4773.091309	307.025269	153.967606	-4741.689453	84.467369	157.655151	-4707.512695	-1.873970	148.328384	-4632.017578	-46.925617	205.233398	-4634.316406	-6.385401	154.894287	-4706.348633	581.392639	384.690277	-4673.174805	557.848572	505.484283	-4720.529297	294.420349	558.741211	-4668.830078	72.780449	554.036499	-4655.409180	-26.761591	551.052063	-4685.394531	-105.891380	492.435455	-4660.791504	-49.449780	479.841278	-4716.123047	99.753502	253.404434	-4624.606445	-277.085175	240.576187	-4540.197266	-637.947083	228.108246	-4373.565430	-707.721680	246.345749	-4725.716797	90.928421	420.961670	-4830.742188	-281.776245	404.110626	-4999.805664	-613.770691	364.022614	-4915.920410	-757.845276	374.632904	-4656.689941	686.087341	359.811066	-4501.609375	690.185669	346.099304	-4524.072754	725.312500	311.395691	-4635.533203	746.307434	264.150421	-4515.211914	726.179993	378.253021	-4618.614258	750.906738	447.693512
49	1.684400	-4699.642578	93.627472	337.563629	-4689.026367	267.181824	346.789917	-4689.172852	406.357483	349.535248	-4675.251953	617.793396	349.435883	-4687.717285	585.196472	327.445679	-4679.381348	560.705261	190.344437	-4750.733887	303.965729	148.674759	-4713.333496	80.943779	158.936005	-4675.537109	-4.459352	148.440308	-4595.261719	-49.853088	199.596786	-4601.431152	-5.531058	150.607361	-4689.465332	583.814880	377.266144	-4653.689941	556.415100	497.449219	-4698.635254	291.726135	556.108215	-4644.677734	68.979668	551.525269	-4643.142090	-31.754025	542.033630	-4668.382324	-122.408966	498.556366	-4643.033691	-48.977859	468.569092	-4693.672852	97.976891	248.877670	-4607.422363	-282.937958	237.443588	-4512.952148	-644.072998	227.766357	-4342.192871	-705.778564	249.325546	-4705.025879	89.702179	417.535553	-4819.783691	-282.942017	400.095032	-4998.307129	-612.771729	358.533051	-4916.103516	-759.517090	361.355621	-4640.228516	689.389954	351.319611	-4483.656738	689.455505	342.297241	-4504.322266	724.471802	305.813629	-4614.502441	747.081299	254.257858	-4497.446289	726.815796	373.344452	-4603.022949	755.925476	439.362976
50	1.717733	-4684.519043	92.553223	334.621552	-4669.937500	265.207794	343.004913	-4667.604492	403.854462	345.094635	-4651.584961	614.282104	339.877563	-4664.499512	581.426941	318.840057	-4658.573242	553.552002	182.793976	-4731.897949	297.975769	144.016022	-4688.366699	76.929077	154.192780	-4646.389648	-6.157115	144.139114	-4571.101074	-57.517609	196.411682	-4573.066406	-4.456244	152.923035	-4665.882813	581.247498	368.504150	-4628.161621	555.868286	488.022308	-4669.422852	292.441986	550.161499	-4625.166992	68.395691	549.344910	-4621.985840	-31.960815	540.305908	-4652.213379	-120.928398	497.452271	-4631.577637	-49.801811	467.911957	-4679.020996	96.381546	246.214951	-4583.011230	-280.781342	238.730042	-4514.130371	-646.246338	229.450729	-4347.955078	-717.787781	250.643936	-4689.476074	89.097816	414.341583	-4804.797363	-281.961517	399.657959	-4986.639160	-608.652039	360.552338	-4915.842773	-760.530945	363.538239	-4615.953125	685.268799	339.801514	-4459.934570	686.589417	331.489868	-4480.717773	719.411072	293.374878	-4590.471191	738.175049	240.491013	-4474.217285	725.140015	360.484131	-4580.019043	756.205688	424.290009
51	1.751066	-4662.841309	88.974464	331.223572	-4644.645996	260.431061	340.967041	-4650.131348	398.366791	343.048920	-4657.086914	608.405945	342.627838	-4666.040527	574.985962	320.795868	-4644.005371	551.466125	186.225632	-4704.921387	295.780975	136.545868	-4674.064453	73.409004	138.498383	-4628.895020	-8.039385	134.767380	-4559.625977	-60.353512	193.119736	-4557.447266	-3.847562	151.659073	-4667.989258	573.515259	370.196564	-4619.619141	559.283997	487.085999	-4649.554688	294.243774	543.160278	-4593.091309	74.078308	548.504211	-4593.065918	-25.665142	537.386902	-4624.114746	-117.344017	502.732086	-4608.431641	-41.692196	465.919067	-4655.754883	93.216209	243.348114	-4560.520508	-282.324890	234.994110	-4502.212891	-647.878784	223.678024	-4341.707520	-727.599060	251.381424	-4669.230957	85.146255	410.464630	-4791.633789	-281.769226	395.040863	-4977.190430	-604.538025	356.997925	-4921.208984	-761.490234	348.687805	-4629.542969	682.498962	344.600037	-4477.453613	707.520142	323.696564	-4506.034180	739.103271	290.213379	-4621.249512	744.594116	248.333038	-4494.280273	741.414185	356.502777	-4596.602051	752.129028	430.668243
